PathFileType	4	(X/Y/Z)	C:/Users/opensim2020/Desktop/walking_exp_matlab/subject01_walking12_straight_03.trc	
DataRate	CameraRate	NumFrames	NumMarkers	Units	OrigDataRate	OrigDataStartFrame	OrigNumFrames	
100.00	100.00	7	44	mm	100.00	1777	172	
Frame#	Time	LFHD			RFHD			LBHD			RBHD			C7			T10			CLAV			STRN			RBAK			LSHO			LUPA			LELB			LFRM			LWRA			LWRB			LFIN			RSHO			RUPA			RELB			RFRM			RWRA			RWRB			RFIN			LASI			RASI			LPSI			RPSI			LTHI			LKNE			LTIB			LANK			LHEE			LTOE			RTHI			RKNE			RTIB			RANK			RHEE			RTOE			*39			*40			*41			*42			*43			
		X1	Y1	Z1	X2	Y2	Z2	X3	Y3	Z3	X4	Y4	Z4	X5	Y5	Z5	X6	Y6	Z6	X7	Y7	Z7	X8	Y8	Z8	X9	Y9	Z9	X10	Y10	Z10	X11	Y11	Z11	X12	Y12	Z12	X13	Y13	Z13	X14	Y14	Z14	X15	Y15	Z15	X16	Y16	Z16	X17	Y17	Z17	X18	Y18	Z18	X19	Y19	Z19	X20	Y20	Z20	X21	Y21	Z21	X22	Y22	Z22	X23	Y23	Z23	X24	Y24	Z24	X25	Y25	Z25	X26	Y26	Z26	X27	Y27	Z27	X28	Y28	Z28	X29	Y29	Z29	X30	Y30	Z30	X31	Y31	Z31	X32	Y32	Z32	X33	Y33	Z33	X34	Y34	Z34	X35	Y35	Z35	X36	Y36	Z36	X37	Y37	Z37	X38	Y38	Z38	X39	Y39	Z39	X40	Y40	Z40	X41	Y41	Z41	X42	Y42	Z42	X43	Y43	Z43	X44	Y44	Z44	

1	0.000	-1036.64319	-783.26294	1671.57166	-925.31256	-765.83887	1678.31909	-1024.44446	-891.71832	1610.48193	-905.13000	-875.52118	1615.60510	-978.23328	-910.02606	1429.30066	-968.23383	-951.38788	1137.38794	-987.84662	-766.50378	1359.54102	-995.09540	-727.09686	1203.55957	-895.11658	-962.41748	1236.98047	-1143.08459	-842.28009	1392.35010	-1222.17749	-901.23883	1215.00940	-1221.91455	-931.41785	1064.73108	-1252.93689	-895.05829	956.71857	-1251.33032	-808.13544	846.81024	-1262.48083	-866.72943	837.34705	-1280.74341	-817.76569	770.13904	-831.40845	-817.11108	1385.85596	-725.86896	-861.47009	1185.17285	-722.78357	-855.33020	1057.58008	-707.39404	-795.34216	947.65979	-749.32721	-690.31641	859.96234	-704.57922	-725.94299	846.59583	-717.24005	-667.87292	784.88141	-1083.56152	-785.03333	932.33899	-866.29669	-783.34204	923.64124	-1032.28455	-970.83221	943.00842	-887.58362	-969.06995	945.31848	-1163.33484	-719.80670	628.20917	-1154.75732	-695.00189	494.86624	-1162.75000	-765.00043	317.88562	-1117.44910	-808.43994	101.74963	-1056.07324	-844.49670	72.99571	-1151.19250	-676.61230	49.65815	-830.32196	-870.48822	591.89514	-863.69781	-881.12750	434.48782	-860.78162	-949.48480	271.47260	-919.91022	-994.15845	72.48940	-969.22968	-1047.77441	37.78247	-925.69073	-856.09357	30.57010	-945.78217	-783.31561	1710.56970	-3102.92627	1972.89087	1024.00684	-3138.67432	2013.09509	1022.07886						 
2	0.010	-1038.05872	-773.08929	1670.63892	-926.59125	-755.45392	1677.59424	-1025.54529	-881.86584	1610.25293	-906.21808	-865.47711	1615.53076	-979.13031	-900.63812	1428.67480	-968.99847	-942.65466	1136.83032	-988.75305	-757.48706	1358.70740	-995.88318	-718.29895	1202.69324	-895.99268	-953.20245	1236.26233	-1144.02417	-833.24969	1391.55969	-1222.85144	-892.67993	1214.08557	-1221.24500	-923.45422	1063.82886	-1251.57983	-889.03613	955.16180	-1249.19592	-804.25409	843.62604	-1260.53394	-862.97766	835.29498	-1278.07605	-815.27893	766.86450	-832.28412	-808.21979	1385.31409	-726.39728	-851.63855	1184.57739	-722.81665	-844.32446	1057.02551	-707.82935	-782.07971	948.32629	-750.59143	-675.53699	862.96350	-705.54706	-710.57593	848.78625	-718.18634	-651.04761	788.65997	-1084.32422	-775.58252	931.86670	-866.82050	-775.27856	922.83612	-1033.59778	-961.99689	942.38739	-889.00446	-960.82629	944.80682	-1163.86072	-710.19391	627.72931	-1154.70642	-684.37085	494.43927	-1164.65552	-744.99701	314.36536	-1120.52576	-776.62531	95.52572	-1059.77905	-812.73022	65.01003	-1150.84131	-641.31097	50.84471	-830.85785	-865.38116	591.61011	-864.07623	-878.13800	434.29773	-860.99445	-947.63861	272.02509	-920.03235	-993.87158	73.23410	-969.65717	-1046.89966	38.29018	-925.65509	-855.89752	30.50716	-947.42108	-772.74176	1709.63892	-3102.20020	1973.09790	1024.10620	-3138.46387	2013.04639	1022.26575						 
3	0.020	-1039.53455	-762.94061	1669.64453	-928.18671	-744.94073	1676.79346	-1026.72668	-872.02637	1609.89844	-907.46442	-855.32922	1615.30298	-980.16168	-891.41168	1428.05212	-969.95721	-933.88904	1136.21082	-989.53448	-748.44324	1357.77234	-996.73962	-709.43024	1201.75989	-896.81549	-944.22986	1235.69226	-1145.16553	-824.10449	1390.65613	-1223.41980	-883.99561	1212.96716	-1220.87366	-915.50598	1063.01880	-1250.48669	-882.81885	953.69373	-1247.30518	-800.18268	840.47595	-1258.80835	-859.06238	833.24408	-1275.50610	-812.64825	763.68719	-833.31207	-799.11768	1384.64380	-726.91187	-841.66394	1183.95117	-722.86792	-833.32135	1056.41882	-708.38208	-768.87335	948.84198	-751.60693	-660.77887	865.88940	-706.57489	-695.36029	850.90240	-719.23389	-634.49109	792.33044	-1084.81750	-766.42188	931.28857	-867.52380	-766.59985	922.24750	-1034.98157	-953.01581	941.67554	-890.53894	-952.55182	944.14532	-1164.71777	-700.99927	626.88513	-1154.67554	-674.26648	493.69113	-1166.50696	-725.47662	311.37396	-1123.42566	-744.94940	90.14159	-1063.66602	-780.95038	57.84844	-1150.08276	-606.37476	53.03900	-831.21497	-860.49194	591.52722	-864.21051	-874.72736	434.35892	-861.27722	-945.64667	272.42322	-920.22815	-993.73914	73.93005	-969.93561	-1046.81409	39.80457	-925.65936	-855.91681	30.47234	-949.16107	-762.22931	1708.65454	-3102.85083	1972.81177	1024.66345	-3138.51440	2012.99707	1022.34052						 
4	0.030	-1041.09680	-752.78180	1668.56384	-929.76123	-734.51642	1675.85645	-1027.96497	-862.13074	1609.39978	-908.68066	-845.22797	1614.95532	-981.33594	-882.28351	1427.43384	-971.06903	-925.09717	1135.58582	-991.09851	-739.26495	1356.88428	-997.72137	-700.55835	1200.73511	-897.72589	-935.26288	1235.14087	-1146.36609	-814.97473	1389.69141	-1224.03625	-875.33472	1211.71130	-1220.53943	-907.24835	1062.03601	-1249.52539	-876.48047	952.19788	-1245.68262	-795.90710	837.44000	-1257.33118	-854.94043	831.23444	-1273.27686	-809.85864	760.51740	-834.49323	-789.80371	1383.77002	-727.59656	-831.66980	1183.20520	-723.03571	-822.16821	1055.78711	-708.95581	-755.72552	949.36737	-752.71094	-646.18640	868.71033	-707.65192	-680.91412	852.97266	-720.29315	-618.14923	795.81818	-1085.58484	-756.81750	930.76190	-868.08179	-758.54669	921.31458	-1036.55444	-943.83618	940.74091	-892.15784	-944.15143	943.51770	-1165.45300	-692.63434	625.45404	-1154.68188	-664.59753	492.67624	-1168.26477	-706.56409	308.80255	-1126.31445	-713.73279	85.64248	-1067.45972	-749.22382	51.81023	-1149.20032	-572.46887	56.07512	-831.71625	-855.19580	591.50092	-864.64331	-871.84802	434.18677	-861.56293	-943.78784	273.19577	-920.40582	-992.92743	74.59182	-970.32764	-1046.16248	40.57173	-925.64435	-855.76422	30.42407	-950.47675	-751.68695	1708.00122	-3102.48340	1972.95142	1024.05554	-3138.64087	2013.07947	1022.20911						 
5	0.040	-1042.70972	-742.63257	1667.45776	-931.37341	-724.15906	1674.84119	-1029.28210	-852.18262	1608.76428	-910.08258	-834.99243	1614.40173	-982.53802	-872.73657	1426.62061	-972.36053	-916.28827	1134.86035	-992.35400	-730.04700	1355.81323	-998.73370	-691.64233	1199.65222	-898.67493	-926.31781	1234.58887	-1147.78650	-805.72845	1388.67773	-1224.85437	-866.54968	1210.39441	-1220.36743	-898.87561	1060.93201	-1248.79895	-869.87018	950.62744	-1244.07971	-791.54706	834.12378	-1255.86890	-850.62347	829.21619	-1271.31519	-806.90186	757.43201	-835.79315	-780.55255	1382.94495	-728.24030	-821.58514	1182.42249	-723.25293	-811.08655	1055.10059	-709.56396	-742.68176	949.81030	-753.84515	-631.95789	871.28076	-708.73914	-665.61005	854.72284	-721.33710	-602.27618	799.13434	-1086.26355	-747.18250	930.13544	-868.71277	-750.46649	920.64368	-1038.22510	-934.56915	939.68707	-894.02448	-935.61096	942.70764	-1166.57397	-684.34467	623.94513	-1154.63403	-655.18201	491.43253	-1169.87134	-688.33881	306.59802	-1129.18970	-683.31622	82.32977	-1071.25818	-718.47595	46.76445	-1148.34570	-539.95477	60.14329	-832.18665	-849.71509	591.38855	-864.73706	-867.29657	434.31393	-861.93237	-942.01251	273.97446	-920.65985	-992.49982	75.68925	-970.71027	-1046.18005	42.41468	-925.56433	-855.65845	30.41890	-952.04785	-740.91162	1706.93909	-3102.63623	1972.98938	1024.11340									 
6	0.050	-1044.40222	-732.42615	1666.23267	-933.24335	-713.84900	1673.57446	-1030.70593	-842.21692	1608.03149	-911.54034	-824.81262	1613.78040	-983.96136	-863.41858	1425.88232	-973.80316	-907.36707	1134.08887	-993.65997	-720.87982	1354.71191	-999.78033	-682.64801	1198.48267	-899.78882	-917.29742	1233.98083	-1149.12036	-796.42938	1387.45044	-1225.64612	-857.69293	1208.94470	-1220.31531	-890.26697	1059.76184	-1248.22644	-863.09680	949.14642	-1242.79175	-786.91974	831.04279	-1254.68201	-846.02747	827.26215	-1269.48523	-803.69226	754.49481	-837.04492	-771.18127	1382.16162	-729.05988	-811.49371	1181.62292	-723.58203	-799.87592	1054.38159	-710.24078	-729.72589	950.18817	-755.03223	-617.86292	873.63873	-709.84497	-651.12769	856.44971	-722.41010	-586.75946	802.19373	-1086.95557	-737.45587	929.43597	-869.39288	-742.07428	920.16785	-1040.02783	-925.08264	938.50482	-895.95825	-927.03143	941.96796	-1167.60547	-676.93665	621.47571	-1154.49829	-646.00494	490.04898	-1171.30713	-670.64630	304.79282	-1131.90967	-654.09027	80.30010	-1074.92249	-688.60406	42.82103	-1148.17847	-509.47128	65.03765	-832.55884	-844.23517	591.36890	-865.12793	-863.44385	434.55099	-862.53668	-939.06116	274.66205	-920.89197	-992.13184	76.82556	-971.21985	-1045.53467	43.57090	-925.54993	-855.36438	30.32167	-954.20270	-730.59601	1705.69043	-3102.30566	1973.13672	1024.05237	-3138.58667	2013.06897	1022.42358						 
7	0.060	-1046.12451	-722.23419	1665.01819	-934.86969	-703.34186	1672.51050	-1032.20056	-832.22308	1607.22473	-913.05109	-814.60638	1613.01648	-985.45953	-854.12683	1425.09912	-975.48901	-898.36255	1133.23999	-995.08649	-711.59192	1353.44226	-1000.87738	-673.59393	1197.30188	-900.93097	-908.60089	1233.59680	-1150.65552	-786.97949	1386.26367	-1226.58667	-848.70917	1207.42554	-1220.38672	-881.59503	1058.50452	-1247.81860	-856.09546	947.54028	-1241.71692	-782.06635	828.10272	-1253.70386	-841.22522	825.34241	-1267.94629	-800.25391	751.60712	-838.67572	-761.76947	1381.10583	-729.89355	-801.23688	1180.87036	-723.95715	-788.61310	1053.68066	-710.97913	-716.84143	950.50983	-755.91364	-603.91565	875.85229	-710.92804	-636.96332	858.08411	-723.57660	-571.64020	805.05652	-1087.69116	-727.52460	928.59003	-870.12885	-733.81836	919.55322	-1041.94043	-915.51697	937.19238	-898.15118	-918.42078	941.12592	-1168.75610	-669.73621	619.12610	-1154.43750	-637.00348	488.56555	-1172.48059	-653.44269	303.34924	-1134.48694	-626.12061	79.55560	-1078.15881	-660.07574	39.83564	-1148.23999	-480.59332	70.53591	-833.02258	-838.28992	591.34100	-865.35822	-858.45178	434.22845	-863.17688	-936.50848	275.47232	-921.24231	-991.31049	77.93977	-971.68250	-1045.60645	45.84221	-925.55127	-855.38873	30.25919	-956.23206	-720.07452	1704.18921	-3102.86475	1972.81458	1023.90826	-3138.76807	2013.00293	1022.15594						 
